<svg viewBox="0 0 86 25" fill="none"
  xmlns="http://www.w3.org/2000/svg">
  <g clip-path="url(#clip0_409_3407)">
    <path d="M80.5347 16.4215C80.5347 16.6573 80.5937 16.8636 80.7116 17.0405C80.8295 17.2056 80.9887 17.3353 81.1891 17.4296C81.4014 17.5122 81.6313 17.5534 81.879 17.5534C82.2327 17.5534 82.5511 17.4827 82.8341 17.3412C83.1171 17.1879 83.347 16.9757 83.5239 16.7044C83.7008 16.4215 83.7892 16.0854 83.7892 15.6963L84.0722 16.7575C84.0722 17.2763 83.9248 17.7126 83.63 18.0664C83.347 18.4201 82.9756 18.6854 82.5157 18.8623C82.0676 19.0392 81.596 19.1276 81.1007 19.1276C80.5937 19.1276 80.122 19.0274 79.6857 18.8269C79.2494 18.6265 78.8957 18.3376 78.6245 17.9603C78.3651 17.5711 78.2354 17.0995 78.2354 16.5453C78.2354 15.7552 78.5125 15.1303 79.0667 14.6704C79.6209 14.2105 80.405 13.9806 81.4191 13.9806C81.9379 13.9806 82.3919 14.0337 82.781 14.1398C83.1819 14.2459 83.518 14.3756 83.7892 14.5289C84.0604 14.6822 84.255 14.8296 84.3729 14.9711V16.0323C84.0545 15.7965 83.6949 15.6196 83.2939 15.5017C82.9048 15.3838 82.4921 15.3248 82.0558 15.3248C81.7021 15.3248 81.4132 15.372 81.1891 15.4663C80.9651 15.5489 80.8 15.6727 80.6939 15.8378C80.5878 15.9911 80.5347 16.1856 80.5347 16.4215ZM79.6503 13.1139L78.8014 11.5574C79.2258 11.3334 79.7447 11.1211 80.3578 10.9207C80.971 10.7084 81.6549 10.6023 82.4096 10.6023C83.1053 10.6023 83.7243 10.7025 84.2668 10.903C84.8092 11.1034 85.2337 11.3982 85.5402 11.7874C85.8468 12.1647 86.0001 12.6305 86.0001 13.1847V18.9507H83.7892V13.6622C83.7892 13.4382 83.7538 13.2495 83.6831 13.0962C83.6123 12.9311 83.5003 12.7955 83.347 12.6894C83.2055 12.5833 83.0345 12.5066 82.8341 12.4595C82.6336 12.4123 82.4096 12.3887 82.162 12.3887C81.7846 12.3887 81.425 12.43 81.083 12.5125C80.7411 12.5951 80.4463 12.6953 80.1987 12.8132C79.951 12.9311 79.7683 13.0314 79.6503 13.1139Z" fill="#9684DB"/>
    <path d="M72.665 10.8146H77.6883V12.7425H72.665V10.8146ZM74.0623 7.98462H76.2733V18.9508H74.0623V7.98462Z" fill="#9684DB"/>
    <path d="M66.7879 14.8827C66.7879 15.3543 66.894 15.767 67.1062 16.1208C67.3185 16.4745 67.6015 16.7516 67.9552 16.9521C68.3208 17.1526 68.7217 17.2528 69.158 17.2528C69.5117 17.2528 69.8537 17.1997 70.1838 17.0936C70.514 16.9757 70.8088 16.8224 71.0682 16.6337C71.3394 16.4333 71.5458 16.2033 71.6873 15.9439V18.2963C71.4043 18.5558 71.0328 18.7621 70.573 18.9154C70.1249 19.0569 69.6002 19.1276 68.9988 19.1276C68.138 19.1276 67.3598 18.9508 66.664 18.597C65.9801 18.2433 65.4377 17.748 65.0368 17.1113C64.6477 16.4627 64.4531 15.7199 64.4531 14.8827C64.4531 14.0337 64.6477 13.2908 65.0368 12.6541C65.4377 12.0173 65.9801 11.5221 66.664 11.1683C67.3598 10.8146 68.138 10.6377 68.9988 10.6377C69.6002 10.6377 70.1249 10.7143 70.573 10.8676C71.0328 11.0091 71.4043 11.2037 71.6873 11.4513V13.8037C71.5458 13.5443 71.3335 13.3203 71.0505 13.1316C70.7793 12.9312 70.4786 12.7779 70.1485 12.6717C69.8183 12.5656 69.4881 12.5126 69.158 12.5126C68.7217 12.5126 68.3208 12.6187 67.9552 12.8309C67.6015 13.0314 67.3185 13.3085 67.1062 13.6622C66.894 14.016 66.7879 14.4228 66.7879 14.8827Z" fill="#9684DB"/>
    <path d="M59.0818 19.1276C58.1974 19.1276 57.4251 18.9508 56.7647 18.597C56.1044 18.2433 55.5915 17.7539 55.2259 17.129C54.8722 16.4922 54.6953 15.7435 54.6953 14.8827C54.6953 14.0101 54.8722 13.2613 55.2259 12.6364C55.5915 11.9996 56.1044 11.5103 56.7647 11.1683C57.4251 10.8146 58.2033 10.6377 59.0995 10.6377C59.9956 10.6377 60.7562 10.8028 61.3811 11.1329C62.0179 11.4513 62.5014 11.923 62.8315 12.5479C63.1617 13.1611 63.3268 13.904 63.3268 14.7765C63.3268 14.8827 63.3209 14.9947 63.3091 15.1126C63.3091 15.2305 63.3032 15.3249 63.2914 15.3956H56.0042V13.9806H61.2927L60.6737 14.7942C60.7208 14.7235 60.7621 14.6292 60.7975 14.5112C60.8446 14.3815 60.8682 14.2754 60.8682 14.1929C60.8682 13.7919 60.7916 13.45 60.6383 13.167C60.4968 12.884 60.2904 12.66 60.0192 12.4949C59.748 12.3298 59.4296 12.2472 59.0641 12.2472C58.616 12.2472 58.2387 12.3475 57.9321 12.5479C57.6373 12.7366 57.4074 13.0255 57.2423 13.4146C57.089 13.7919 57.0065 14.2636 56.9947 14.8296C56.9947 15.372 57.0713 15.8319 57.2246 16.2092C57.3897 16.5866 57.6314 16.8755 57.9498 17.0759C58.2682 17.2764 58.6514 17.3766 59.0995 17.3766C59.6065 17.3766 60.0369 17.2823 60.3907 17.0936C60.7562 16.8931 61.0569 16.5983 61.2927 16.2092L63.2914 16.8283C62.8669 17.5947 62.3009 18.1725 61.5934 18.5616C60.8977 18.939 60.0605 19.1276 59.0818 19.1276Z" fill="#9684DB"/>
    <path d="M46.8501 22.8422H44.5508V10.8148H46.8501V22.8422ZM53.536 14.8829C53.536 15.8026 53.3532 16.5868 52.9877 17.2353C52.6221 17.8838 52.1387 18.3732 51.5373 18.7033C50.9477 19.0335 50.311 19.1986 49.6271 19.1986C48.9314 19.1986 48.3241 19.0217 47.8053 18.668C47.2982 18.3142 46.9032 17.8131 46.6202 17.1645C46.349 16.516 46.2134 15.7554 46.2134 14.8829C46.2134 13.9985 46.349 13.2379 46.6202 12.6012C46.9032 11.9527 47.2982 11.4515 47.8053 11.0978C48.3241 10.744 48.9314 10.5671 49.6271 10.5671C50.311 10.5671 50.9477 10.7322 51.5373 11.0624C52.1387 11.3926 52.6221 11.8819 52.9877 12.5304C53.3532 13.1672 53.536 13.9513 53.536 14.8829ZM51.1659 14.8829C51.1659 14.3994 51.0656 13.9867 50.8652 13.6447C50.6647 13.3028 50.3935 13.0434 50.0516 12.8665C49.7214 12.6896 49.3559 12.6012 48.9549 12.6012C48.613 12.6012 48.2769 12.6896 47.9468 12.8665C47.6284 13.0316 47.3631 13.2851 47.1508 13.6271C46.9504 13.969 46.8501 14.3876 46.8501 14.8829C46.8501 15.3781 46.9504 15.7967 47.1508 16.1387C47.3631 16.4806 47.6284 16.74 47.9468 16.9169C48.2769 17.082 48.613 17.1645 48.9549 17.1645C49.3559 17.1645 49.7214 17.0761 50.0516 16.8992C50.3935 16.7224 50.6647 16.4629 50.8652 16.121C51.0656 15.779 51.1659 15.3663 51.1659 14.8829Z" fill="#9684DB"/>
    <path d="M35.2719 14.7943C35.5313 15.2542 35.8143 15.6551 36.1209 15.997C36.4393 16.339 36.7871 16.6043 37.1644 16.793C37.5418 16.9816 37.9486 17.076 38.3849 17.076C38.8919 17.076 39.3046 16.9463 39.623 16.6868C39.9414 16.4274 40.1005 16.0737 40.1005 15.6256C40.1005 15.2365 40.0003 14.924 39.7999 14.6882C39.6112 14.4523 39.3223 14.246 38.9332 14.0691C38.5558 13.8804 38.0901 13.68 37.5359 13.4677C37.2411 13.3616 36.8991 13.2201 36.51 13.0432C36.1327 12.8546 35.773 12.6187 35.4311 12.3357C35.0891 12.0409 34.8061 11.6872 34.5821 11.2745C34.358 10.85 34.246 10.343 34.246 9.75338C34.246 9.04588 34.4229 8.43861 34.7766 7.93158C35.1422 7.41274 35.6315 7.01773 36.2447 6.74652C36.8696 6.46352 37.5654 6.32202 38.3318 6.32202C39.1218 6.32202 39.7999 6.45762 40.3659 6.72883C40.9436 6.98825 41.4212 7.32431 41.7985 7.73701C42.1877 8.13793 42.4883 8.55653 42.7006 8.99282L40.7196 10.0894C40.5545 9.79465 40.3541 9.52934 40.1182 9.29351C39.8942 9.04588 39.6348 8.85132 39.34 8.70982C39.0452 8.55653 38.7091 8.47989 38.3318 8.47989C37.8366 8.47989 37.4651 8.5978 37.2175 8.83363C36.9699 9.05767 36.8461 9.32298 36.8461 9.62957C36.8461 9.93615 36.9463 10.2074 37.1468 10.4432C37.3472 10.6672 37.6538 10.8854 38.0665 11.0976C38.4792 11.2981 38.998 11.5044 39.623 11.7167C40.0239 11.8582 40.4071 12.0351 40.7727 12.2473C41.15 12.4595 41.4861 12.719 41.7809 13.0255C42.0874 13.3203 42.3233 13.6741 42.4883 14.0868C42.6652 14.4877 42.7537 14.9535 42.7537 15.4841C42.7537 16.0855 42.6357 16.622 42.3999 17.0936C42.1641 17.5653 41.8398 17.9662 41.4271 18.2964C41.0144 18.6148 40.5486 18.8565 40.0298 19.0216C39.5228 19.1984 38.9862 19.2869 38.4202 19.2869C37.6656 19.2869 36.9581 19.1454 36.2978 18.8624C35.6492 18.5676 35.0832 18.1726 34.5998 17.6773C34.1163 17.1821 33.739 16.6456 33.4678 16.0678L35.2719 14.7943Z" fill="#9684DB"/>
    <path d="M15.9048 0.689523L13.4119 0L11.3111 8.09321L9.4144 0.786606L6.92142 1.47613L8.97064 9.37037L3.86651 4.10169L2.04155 5.9855L7.64014 11.7647L0.667983 9.83622L0 12.4095L7.61795 14.5166C7.53074 14.1283 7.48459 13.7237 7.48459 13.3079C7.48459 10.3652 9.79559 7.97969 12.6464 7.97969C15.4972 7.97969 17.8082 10.3652 17.8082 13.3079C17.8082 13.721 17.7626 14.1231 17.6765 14.5091L24.5998 16.424L25.2677 13.8507L17.6195 11.7353L24.5921 9.80672L23.9241 7.23342L16.2762 9.34872L21.3803 4.08006L19.5553 2.19625L14.0344 7.89522L15.9048 0.689523Z" fill="#9684DB"/>
    <path d="M17.8468 13.8972C17.61 14.8252 17.1099 15.6588 16.4238 16.3267L21.9818 21.4775L24.0041 19.6034L17.8468 13.8972Z" fill="#4F37AB"/>
    <path d="M16.5969 16.4241C15.8635 17.0175 14.9367 17.4604 13.8975 17.6886L16.0334 24.0044L18.951 23.385L16.5969 16.4241Z" fill="#6B57B7"/>
    <path d="M13.8976 17.7112C13.55 17.8185 13.1856 17.8755 12.8102 17.8755C12.4079 17.8755 12.0184 17.81 11.6486 17.6875L10.1074 24.5914L12.2107 25.2678L13.8976 17.7112Z" fill="#9684DB"/>
    <path d="M11.3704 17.6997C10.4616 17.4616 9.65326 17.0157 9.01535 16.4241L3.79004 21.0588L5.68663 22.741L11.3704 17.6997Z" fill="#9684DB"/>
    <path d="M8.84399 15.9311C8.28613 15.3689 7.87979 14.6717 7.68638 13.8972L1.26367 15.5173L1.88133 17.6874L8.84399 15.9311Z" fill="#9684DB"/>
  </g>
  <defs>
    <clipPath id="clip0_409_3407">
      <rect width="86" height="25" fill="white"/>
    </clipPath>
  </defs>
</svg>
