<svg fill="none"
  xmlns="http://www.w3.org/2000/svg" viewBox="0 0 142 28">
  <path d="M137.75 7.48h3.72v16.8h-3.72V7.48Zm-9.062 3.096h-.84l-4.8 13.704h-3.816l6.072-16.8h6l6.048 16.8h-3.816l-4.848-13.704Zm-5.4 6.984h9.792v3.096h-9.792V17.56Zm-15.045 6.888c-1.232 0-2.304-.256-3.216-.768a5.563 5.563 0 0 1-2.136-2.208c-.496-.944-.744-2.048-.744-3.312 0-1.168.248-2.208.744-3.12a5.364 5.364 0 0 1 2.088-2.136c.896-.528 1.912-.792 3.048-.792 1.2 0 2.24.248 3.12.744a5.126 5.126 0 0 1 2.064 2.064c.496.896.744 1.936.744 3.12 0 .192-.008.392-.024.6-.016.208-.04.44-.072.696h-7.968c.08.432.232.808.456 1.128.224.304.504.544.84.72.352.16.752.24 1.2.24a2.87 2.87 0 0 0 1.344-.312c.4-.208.696-.504.888-.888l3.144.864c-.48 1.072-1.2 1.904-2.16 2.496-.96.576-2.08.864-3.36.864Zm1.896-7.392a2.097 2.097 0 0 0-1.056-1.776 1.813 1.813 0 0 0-1.008-.24 2.193 2.193 0 0 0-1.752.984 2.171 2.171 0 0 0-.384 1.032h4.2ZM97.276 12.28h3.504v12h-3.504v-12Zm1.752-1.224c-.656 0-1.192-.192-1.608-.576-.4-.4-.6-.88-.6-1.44 0-.576.2-1.056.6-1.44.416-.4.952-.6 1.608-.6.64 0 1.16.2 1.56.6.416.384.624.864.624 1.44 0 .56-.208 1.04-.624 1.44-.4.384-.92.576-1.56.576ZM76.88 12.28h3.168l.24 1.224c.384-.416.84-.752 1.368-1.008a3.908 3.908 0 0 1 1.728-.384c.736 0 1.416.16 2.04.48.64.32 1.16.784 1.56 1.392a4.784 4.784 0 0 1 1.632-1.344 4.686 4.686 0 0 1 2.208-.528c.944 0 1.76.2 2.448.6.704.4 1.248.984 1.632 1.752.384.768.576 1.704.576 2.808v7.008h-3.504v-6.576c0-.768-.176-1.352-.528-1.752-.352-.416-.848-.624-1.488-.624-.672 0-1.192.208-1.56.624-.368.416-.552 1.024-.552 1.824v6.504h-3.504v-6.576c0-.768-.16-1.352-.48-1.752-.32-.416-.808-.624-1.464-.624-.672 0-1.176.208-1.512.624-.336.416-.504 1.008-.504 1.776v6.552H76.88v-12Zm-7.178 12.168c-1.168 0-2.216-.248-3.144-.744a5.396 5.396 0 0 1-2.184-2.136c-.512-.928-.768-2.024-.768-3.288 0-1.264.264-2.352.792-3.264a5.556 5.556 0 0 1 2.208-2.136c.944-.512 1.992-.768 3.144-.768 1.184 0 2.24.256 3.168.768a5.515 5.515 0 0 1 2.232 2.136c.544.912.816 1.992.816 3.24 0 1.28-.28 2.384-.84 3.312a5.477 5.477 0 0 1-2.256 2.136c-.944.496-2 .744-3.168.744Zm0-3.168c.416 0 .816-.112 1.2-.336.384-.224.688-.552.912-.984.24-.448.36-1.008.36-1.68 0-.672-.12-1.224-.36-1.656-.224-.448-.52-.784-.888-1.008a2.224 2.224 0 0 0-1.176-.336c-.448 0-.848.112-1.2.336-.352.224-.64.56-.864 1.008-.208.432-.312.984-.312 1.656 0 .672.104 1.232.312 1.68.208.432.488.76.84.984.352.224.744.336 1.176.336Zm-17.89-9h3.168l.24 1.296c.4-.432.872-.784 1.416-1.056a3.915 3.915 0 0 1 1.775-.408c.944 0 1.736.2 2.377.6.656.4 1.152.984 1.488 1.752.351.768.527 1.704.527 2.808v7.008H59.3v-6.576c0-.8-.168-1.408-.505-1.824-.32-.416-.808-.624-1.464-.624-.672 0-1.175.216-1.512.648-.336.416-.504 1.024-.504 1.824v6.552h-3.503v-12Zm-4.679.624c-.464-.848-1.056-1.464-1.776-1.848-.704-.4-1.496-.6-2.376-.6-.928 0-1.768.24-2.52.72-.736.464-1.32 1.104-1.752 1.92-.416.816-.624 1.744-.624 2.784 0 1.088.208 2.04.624 2.856.416.8 1 1.432 1.752 1.896.752.448 1.632.672 2.64.672.624 0 1.2-.104 1.728-.312.528-.224 1-.528 1.416-.912a5.638 5.638 0 0 0 1.056-1.32v-1.056h-4.32v-2.928h7.8v4.656c-.384.88-.944 1.704-1.68 2.472-.736.752-1.624 1.368-2.664 1.848-1.04.464-2.224.696-3.552.696-1.248 0-2.392-.208-3.432-.624a7.981 7.981 0 0 1-2.712-1.776 8.286 8.286 0 0 1-1.8-2.712c-.416-1.056-.624-2.208-.624-3.456 0-1.248.208-2.392.624-3.432a8.418 8.418 0 0 1 1.776-2.736 7.981 7.981 0 0 1 2.712-1.776c1.04-.416 2.184-.624 3.432-.624a9.65 9.65 0 0 1 3.288.552 7.825 7.825 0 0 1 2.712 1.608 6.243 6.243 0 0 1 1.704 2.52l-3.432.912Z" fill="#CAD61B"/>
  <path d="M13.377 6.311c-.881.042-1.788-.07-2.556-.452-.768-.38-1.378-1.058-1.485-1.836-.106-.774.362-1.62 1.181-1.914.817-.293 1.898.104 2.133.856-.01-.714-.01-1.465.368-2.095.378-.629 1.278-1.074 2.01-.774.51.21.795.723.84 1.22.042.497-.11.99-.265 1.471.155-.81 1.304-1.275 2.162-.965.859.31 1.327 1.207 1.214 2.02-.113.814-.72 1.527-1.472 2.004a4.787 4.787 0 0 1-4.13.465Z" fill="#FBB18C"/>
  <path d="M6.739 27.484c-2.02-1.413-3.343-3.246-4.315-5.125C.97 19.54.236 16.47 1.037 13.524c.8-2.946 3.278-5.75 7.06-7.17 3.782-1.42 8.875-1.214 12.008.835 1.71 1.12 2.74 2.679 3.195 4.283.452 1.603.361 3.262.087 4.885-.68 4.008-2.494 7.92-5.305 11.447-3.389-.317-6.845-.265-11.343-.32Z" fill="#CAD61B"/>
  <mask id="a" style="mask-type:luminance" maskUnits="userSpaceOnUse" x="0" y="5" width="24" height="23">
    <path d="M6.739 27.484c-2.02-1.414-3.343-3.247-4.315-5.125C.97 19.54.236 16.47 1.037 13.524c.8-2.947 3.278-5.751 7.06-7.17 3.782-1.42 8.875-1.214 12.008.835 1.71 1.12 2.74 2.678 3.195 4.282.452 1.604.361 3.263.087 4.886-.68 4.008-2.494 7.92-5.305 11.446-3.389-.316-6.845-.264-11.343-.32Z" fill="#fff"/>
  </mask>
  <g mask="url(#a)">
    <path d="M8.888 4.472C2.64 12.33 2.605 23.189 8.8 31.072" stroke="#A9B136" stroke-width="1" stroke-miterlimit="10"/>
  </g>
  <mask id="b" style="mask-type:luminance" maskUnits="userSpaceOnUse" x="0" y="5" width="24" height="23">
    <path d="M6.739 27.484c-2.02-1.414-3.343-3.247-4.315-5.125C.97 19.54.236 16.47 1.037 13.524c.8-2.947 3.278-5.751 7.06-7.17 3.782-1.42 8.875-1.214 12.008.835 1.71 1.12 2.74 2.678 3.195 4.282.452 1.604.361 3.263.087 4.886-.68 4.008-2.494 7.92-5.305 11.446-3.389-.316-6.845-.264-11.343-.32Z" fill="#fff"/>
  </mask>
  <g mask="url(#b)">
    <path d="M18.082 3.862c3.253 8.342 2.54 17.675-1.959 25.62" stroke="#A9B136" stroke-width="1" stroke-miterlimit="10"/>
  </g>
  <mask id="c" style="mask-type:luminance" maskUnits="userSpaceOnUse" x="0" y="5" width="24" height="23">
    <path d="M6.739 27.484c-2.02-1.414-3.343-3.247-4.315-5.125C.97 19.54.236 16.47 1.037 13.524c.8-2.947 3.278-5.751 7.06-7.17 3.782-1.42 8.875-1.214 12.008.835 1.71 1.12 2.74 2.678 3.195 4.282.452 1.604.361 3.263.087 4.886-.68 4.008-2.494 7.92-5.305 11.446-3.389-.316-6.845-.264-11.343-.32Z" fill="#fff"/>
  </mask>
  <g mask="url(#c)">
    <path d="M12.67 3.656c-3.73 8.164-4.476 17.226-2.113 25.726" stroke="#A9B136" stroke-width="1" stroke-miterlimit="10"/>
  </g>
  <mask id="d" style="mask-type:luminance" maskUnits="userSpaceOnUse" x="0" y="5" width="24" height="23">
    <path d="M6.739 27.484c-2.02-1.414-3.343-3.247-4.315-5.125C.97 19.54.236 16.47 1.037 13.524c.8-2.947 3.278-5.751 7.06-7.17 3.782-1.42 8.875-1.214 12.008.835 1.71 1.12 2.74 2.678 3.195 4.282.452 1.604.361 3.263.087 4.886-.68 4.008-2.494 7.92-5.305 11.446-3.389-.316-6.845-.264-11.343-.32Z" fill="#fff"/>
  </mask>
  <g mask="url(#d)">
    <path d="M14.183 2.633A87.576 87.576 0 0 1 12.45 31.72" stroke="#A9B136" stroke-width="1" stroke-miterlimit="10"/>
  </g>
  <path d="M0 27.58a4 4 0 0 1 4-4h16.316a4 4 0 0 1 4 4V28H0v-.42Z" fill="#BB712C"/>
</svg>
