<svg fill="none" xmlns="http://www.w3.org/2000/svg" viewBox="0 0 154 34"><path d="M17 23a6 6 0 1 1 0-12 6 6 0 0 1 0 12Z" fill="#51A3EE"/><path d="M5.376 19.05c-1.739.306-2.93 1.986-2.263 3.62a15 15 0 0 0 27.963-.488c.61-1.657-.64-3.294-2.388-3.54-1.748-.245-3.318 1.027-4.182 2.567a8.606 8.606 0 0 1-14.861.26c-.917-1.509-2.53-2.726-4.269-2.42Z" fill="#51A3EE"/><path d="M31.884 18.875c.077-.615.116-1.24.116-1.875 0-8.284-6.716-15-15-15C8.716 2 2 8.716 2 17c0 .815.065 1.614.19 2.394a4.68 4.68 0 0 1 2.926-1.822c1.256-.221 2.399.084 3.364.653a8.606 8.606 0 1 1 17.077-.298c.945-.603 2.076-.947 3.34-.77 1.168.164 2.266.8 2.987 1.718Z" fill="#0E4F8B"/><path d="M149.106 23.176c-.8 0-1.526-.176-2.176-.528a4.107 4.107 0 0 1-1.52-1.472 3.941 3.941 0 0 1-.56-2.08c0-.768.186-1.456.56-2.064a4.024 4.024 0 0 1 1.52-1.44c.64-.363 1.365-.544 2.176-.544.81 0 1.536.176 2.176.528.64.352 1.146.837 1.52 1.456.373.608.56 1.296.56 2.064a3.95 3.95 0 0 1-.56 2.08 4.114 4.114 0 0 1-1.52 1.472c-.64.352-1.366.528-2.176.528Zm0-2.224c.352 0 .661-.075.928-.224.266-.16.469-.379.608-.656.149-.288.224-.613.224-.976s-.075-.677-.224-.944a1.577 1.577 0 0 0-.624-.64c-.256-.16-.56-.24-.912-.24-.342 0-.646.08-.912.24-.267.15-.475.363-.624.64-.15.277-.224.597-.224.96 0 .352.074.672.224.96.149.277.357.496.624.656.266.15.57.224.912.224ZM134.7 23l-2.688-7.776h2.4l1.664 5.648-.704.016 1.84-5.664h1.984l1.856 5.664-.72-.016 1.68-5.648h2.4L141.724 23h-2l-1.808-5.376h.608L136.684 23H134.7ZM126.909 23V11.864h2.512V23h-2.512Zm-3.536-9.104v-2.192h9.584v2.192h-9.584ZM118.47 23V12.008h2.448V23h-2.448Zm-1.76-5.696v-2.08h5.968v2.08h-5.968ZM111.888 23.176c-.8 0-1.525-.176-2.176-.528a4.107 4.107 0 0 1-1.52-1.472 3.95 3.95 0 0 1-.56-2.08c0-.768.187-1.456.56-2.064a4.024 4.024 0 0 1 1.52-1.44c.64-.363 1.365-.544 2.176-.544.811 0 1.536.176 2.176.528.64.352 1.147.837 1.52 1.456.373.608.56 1.296.56 2.064a3.95 3.95 0 0 1-.56 2.08 4.107 4.107 0 0 1-1.52 1.472c-.64.352-1.365.528-2.176.528Zm0-2.224c.352 0 .661-.075.928-.224.267-.16.469-.379.608-.656.149-.288.224-.613.224-.976s-.075-.677-.224-.944a1.564 1.564 0 0 0-.624-.64c-.256-.16-.56-.24-.912-.24-.341 0-.645.08-.912.24-.267.15-.475.363-.624.64a1.997 1.997 0 0 0-.224.96c0 .352.075.672.224.96.149.277.357.496.624.656.267.15.571.224.912.224ZM103.963 23v-4.432c0-.405-.128-.73-.384-.976-.245-.256-.56-.384-.944-.384a1.38 1.38 0 0 0-.704.176 1.153 1.153 0 0 0-.48.48 1.383 1.383 0 0 0-.176.704l-.944-.464c0-.608.128-1.141.384-1.6a2.62 2.62 0 0 1 1.072-1.056c.459-.256.987-.384 1.584-.384.608 0 1.141.128 1.6.384.459.245.811.592 1.056 1.04.256.437.384.95.384 1.536V23h-2.448Zm-5.136 0V11.384h2.448V23h-2.448ZM94.171 23.192a5.348 5.348 0 0 1-2.592-.672 4.34 4.34 0 0 1-.96-.768l1.392-1.408c.256.277.56.496.912.656.352.15.736.224 1.152.224.288 0 .507-.043.656-.128.16-.085.24-.203.24-.352 0-.192-.096-.336-.288-.432a2.771 2.771 0 0 0-.704-.272 272.31 272.31 0 0 1-.912-.272 4.083 4.083 0 0 1-.912-.4 2.023 2.023 0 0 1-.704-.704c-.181-.31-.272-.699-.272-1.168 0-.501.128-.933.384-1.296.256-.373.619-.667 1.088-.88.47-.213 1.019-.32 1.648-.32.661 0 1.27.117 1.824.352.566.224 1.024.56 1.376 1.008l-1.392 1.408a2.046 2.046 0 0 0-.832-.608 2.396 2.396 0 0 0-.88-.176c-.277 0-.485.043-.624.128a.36.36 0 0 0-.208.336c0 .16.09.288.272.384.181.096.416.181.704.256.288.075.592.165.912.272.32.107.624.25.912.432.288.181.523.427.704.736.182.299.272.693.272 1.184 0 .757-.288 1.36-.864 1.808-.565.448-1.333.672-2.304.672ZM87.16 23v-4.432c0-.405-.129-.73-.385-.976-.245-.256-.56-.384-.944-.384a1.38 1.38 0 0 0-.704.176 1.157 1.157 0 0 0-.48.48 1.38 1.38 0 0 0-.176.704l-.944-.464c0-.608.134-1.141.4-1.6a2.7 2.7 0 0 1 1.104-1.056 3.38 3.38 0 0 1 1.616-.384c.576 0 1.083.139 1.52.416.448.267.8.624 1.056 1.072.256.448.384.939.384 1.472V23H87.16Zm-5.137 0v-7.776h2.448V23h-2.448ZM76.938 23.176c-.843 0-1.595-.17-2.256-.512a3.957 3.957 0 0 1-1.536-1.456c-.373-.619-.56-1.317-.56-2.096 0-.779.181-1.472.544-2.08a4.021 4.021 0 0 1 1.504-1.456c.63-.352 1.339-.528 2.128-.528.768 0 1.445.165 2.032.496.587.33 1.045.79 1.376 1.376.341.587.512 1.259.512 2.016 0 .139-.01.288-.032.448-.01.15-.037.325-.08.528l-6.704.016v-1.68l5.664-.016-1.056.704c-.01-.448-.08-.816-.208-1.104a1.379 1.379 0 0 0-.576-.672c-.245-.16-.55-.24-.912-.24-.384 0-.72.09-1.008.272-.277.17-.496.416-.656.736-.15.32-.224.71-.224 1.168 0 .459.08.853.24 1.184.17.32.405.57.704.752.31.17.672.256 1.088.256.384 0 .73-.064 1.04-.192a2.37 2.37 0 0 0 .816-.608l1.344 1.344a3.628 3.628 0 0 1-1.392 1.008 4.662 4.662 0 0 1-1.792.336ZM68.012 23.176c-.843 0-1.594-.17-2.256-.512a3.956 3.956 0 0 1-1.536-1.456c-.373-.619-.56-1.317-.56-2.096 0-.779.182-1.472.544-2.08a4.02 4.02 0 0 1 1.504-1.456c.63-.352 1.339-.528 2.128-.528.768 0 1.445.165 2.032.496.587.33 1.046.79 1.376 1.376.341.587.512 1.259.512 2.016 0 .139-.01.288-.032.448-.01.15-.037.325-.08.528l-6.704.016v-1.68l5.664-.016-1.056.704c-.01-.448-.08-.816-.208-1.104a1.379 1.379 0 0 0-.576-.672c-.245-.16-.55-.24-.912-.24-.384 0-.72.09-1.008.272-.277.17-.496.416-.656.736-.15.32-.224.71-.224 1.168 0 .459.08.853.24 1.184.17.32.406.57.704.752.31.17.672.256 1.088.256.384 0 .73-.064 1.04-.192.31-.139.582-.341.816-.608l1.344 1.344a3.628 3.628 0 0 1-1.392 1.008 4.662 4.662 0 0 1-1.792.336ZM57.402 23v-7.776h2.448V23h-2.448Zm2.448-4.272-1.024-.8c.203-.907.544-1.61 1.024-2.112.48-.501 1.147-.752 2-.752.374 0 .699.059.976.176.288.107.539.277.752.512l-1.456 1.84a1.065 1.065 0 0 0-.4-.272 1.455 1.455 0 0 0-.544-.096c-.405 0-.73.128-.976.384-.234.245-.352.619-.352 1.12ZM53.065 23.176c-.8 0-1.525-.176-2.176-.528a3.956 3.956 0 0 1-1.536-1.456 3.947 3.947 0 0 1-.56-2.08c0-.779.187-1.472.56-2.08a4.075 4.075 0 0 1 1.552-1.456c.65-.352 1.381-.528 2.192-.528.608 0 1.163.107 1.664.32.512.203.965.512 1.36.928l-1.568 1.568a1.663 1.663 0 0 0-.64-.448 2.144 2.144 0 0 0-.816-.144c-.352 0-.667.08-.944.24-.267.15-.48.363-.64.64a1.9 1.9 0 0 0-.224.944c0 .363.075.683.224.96.16.277.379.496.656.656.277.16.587.24.928.24.32 0 .603-.053.848-.16a1.97 1.97 0 0 0 .656-.48l1.552 1.568a4.22 4.22 0 0 1-1.376.976 4.412 4.412 0 0 1-1.712.32ZM43.48 23.176c-.928 0-1.728-.15-2.4-.448-.661-.31-1.27-.773-1.824-1.392l1.632-1.616c.363.416.763.741 1.2.976.448.224.965.336 1.552.336.533 0 .944-.096 1.232-.288.298-.192.448-.459.448-.8 0-.31-.096-.56-.288-.752a2.449 2.449 0 0 0-.768-.496c-.31-.139-.656-.272-1.04-.4a16.074 16.074 0 0 1-1.12-.432 5.38 5.38 0 0 1-1.04-.624c-.31-.256-.56-.57-.752-.944-.192-.384-.288-.864-.288-1.44 0-.693.165-1.29.496-1.792.341-.501.81-.88 1.408-1.136.597-.267 1.285-.4 2.064-.4.79 0 1.51.139 2.16.416.661.277 1.205.656 1.632 1.136l-1.632 1.616c-.342-.352-.688-.613-1.04-.784a2.577 2.577 0 0 0-1.168-.256c-.438 0-.784.085-1.04.256a.779.779 0 0 0-.384.704c0 .288.096.523.288.704.192.17.443.32.752.448.32.128.666.256 1.04.384.384.128.762.277 1.136.448.373.17.715.39 1.024.656.32.256.576.587.768.992.192.395.288.885.288 1.472 0 1.077-.384 1.925-1.152 2.544-.768.608-1.83.912-3.184.912Z" fill="#51A3EE"/></svg>