<svg fill="none" xmlns="http://www.w3.org/2000/svg" viewBox="0 0 204 37"><path d="M17.5 37C27.166 37 35 29.165 35 19.5V7.25A5.25 5.25 0 0 0 29.75 2H18.375v7.677c0 1.752.107 3.567 1.026 5.058a8.748 8.748 0 0 0 6.041 4.048l.335.055a.7.7 0 0 1 0 1.324l-.335.055a8.75 8.75 0 0 0-7.225 7.225l-.054.335a.7.7 0 0 1-1.325 0l-.054-.335a8.752 8.752 0 0 0-4.049-6.041c-1.49-.92-3.306-1.026-5.057-1.026H.02C.48 29.633 8.13 37 17.501 37Z" fill="#0E1534"/><path d="M0 18.625h7.677c1.752 0 3.567-.107 5.058-1.026a8.764 8.764 0 0 0 2.865-2.864c.918-1.491 1.025-3.306 1.025-5.058V2H5.25A5.25 5.25 0 0 0 0 7.25v11.375ZM40.648 3.75a1.75 1.75 0 1 1-3.5 0 1.75 1.75 0 0 1 3.5 0ZM196.088 26.312c-1.444 0-2.708-.27-3.791-.812-1.068-.556-1.902-1.308-2.504-2.256-.587-.963-.88-2.053-.88-3.271 0-1.219.286-2.302.857-3.25a5.968 5.968 0 0 1 2.415-2.233c1.022-.542 2.173-.812 3.452-.812 1.203 0 2.301.248 3.294.744a5.625 5.625 0 0 1 2.369 2.144c.586.947.88 2.098.88 3.452 0 .15-.008.323-.023.519-.015.195-.03.376-.045.541h-9.679v-2.256h7.4l-1.624.632c.015-.557-.091-1.038-.316-1.444a2.289 2.289 0 0 0-.903-.948c-.376-.226-.819-.338-1.331-.338-.511 0-.963.112-1.354.338a2.302 2.302 0 0 0-.88.97c-.21.406-.315.888-.315 1.444v.654c0 .602.12 1.121.361 1.557.255.436.616.775 1.083 1.015.466.226 1.022.339 1.669.339.602 0 1.113-.083 1.534-.248.437-.18.865-.451 1.286-.813l2.257 2.347a5.82 5.82 0 0 1-2.166 1.49c-.858.33-1.873.495-3.046.495ZM179.831 26.11V13.88h4.084v3.566l-.609-1.016c.361-.917.947-1.602 1.759-2.053.813-.466 1.798-.7 2.956-.7v3.859a3.445 3.445 0 0 0-.519-.045 4.117 4.117 0 0 0-.451-.023c-.873 0-1.579.24-2.121.722-.541.466-.812 1.233-.812 2.301v5.618h-4.287ZM175.2 26.312c-1.564 0-2.783-.383-3.655-1.15-.872-.782-1.309-1.956-1.309-3.52V11.15h4.287v10.446c0 .436.121.782.361 1.038.241.24.549.36.925.36.512 0 .948-.127 1.309-.383l1.06 3c-.361.242-.804.415-1.331.52-.526.12-1.075.18-1.647.18Zm-6.746-8.776v-3.204h8.867v3.204h-8.867ZM161.995 13.678c.947 0 1.805.195 2.572.586.767.376 1.368.963 1.805 1.76.451.797.677 1.828.677 3.091v6.994h-4.287v-6.294c0-.873-.181-1.505-.542-1.896-.346-.406-.835-.609-1.466-.609-.452 0-.865.106-1.241.316-.376.196-.67.504-.88.925-.211.421-.316.97-.316 1.647v5.911h-4.287V13.881h4.084v3.474l-.79-1.015c.467-.887 1.106-1.55 1.918-1.985.812-.452 1.73-.677 2.753-.677ZM145.963 26.312c-1.444 0-2.708-.27-3.791-.812-1.068-.556-1.902-1.308-2.504-2.256-.587-.963-.88-2.053-.88-3.271 0-1.219.286-2.302.857-3.25a5.968 5.968 0 0 1 2.415-2.233c1.022-.542 2.173-.812 3.452-.812 1.203 0 2.301.248 3.294.744a5.625 5.625 0 0 1 2.369 2.144c.586.947.88 2.098.88 3.452 0 .15-.008.323-.023.519-.015.195-.03.376-.045.541h-9.679v-2.256h7.4l-1.624.632c.015-.557-.091-1.038-.316-1.444a2.289 2.289 0 0 0-.903-.948c-.376-.226-.819-.338-1.331-.338-.511 0-.963.112-1.354.338a2.302 2.302 0 0 0-.88.97c-.21.406-.315.888-.315 1.444v.654c0 .602.12 1.121.361 1.557.255.436.616.775 1.083 1.015.466.226 1.022.339 1.669.339.602 0 1.113-.083 1.534-.248.437-.18.865-.451 1.286-.813l2.257 2.347a5.82 5.82 0 0 1-2.166 1.49c-.858.33-1.873.495-3.046.495ZM131.372 26.425c-1.249 0-2.407-.195-3.475-.587a8.34 8.34 0 0 1-2.752-1.714 8.05 8.05 0 0 1-1.805-2.595c-.436-1.008-.654-2.113-.654-3.317 0-1.203.218-2.3.654-3.293a7.984 7.984 0 0 1 1.805-2.618 8.047 8.047 0 0 1 2.752-1.692c1.068-.406 2.226-.609 3.475-.609 1.459 0 2.76.256 3.903.767a7.51 7.51 0 0 1 2.888 2.211l-2.843 2.572c-.511-.601-1.075-1.06-1.692-1.376-.602-.316-1.278-.474-2.03-.474-.647 0-1.241.105-1.783.316a3.86 3.86 0 0 0-1.399.925 4.406 4.406 0 0 0-.902 1.421 5.181 5.181 0 0 0-.316 1.85c0 .677.105 1.294.316 1.85.225.557.526 1.038.902 1.445.391.39.858.691 1.399.902.542.21 1.136.316 1.783.316.752 0 1.428-.158 2.03-.474.617-.316 1.181-.774 1.692-1.376l2.843 2.572a7.815 7.815 0 0 1-2.888 2.211c-1.143.511-2.444.767-3.903.767ZM112.098 26.312c-1.565 0-2.783-.383-3.655-1.15-.873-.782-1.309-1.956-1.309-3.52V11.15h4.287v10.446c0 .436.12.782.361 1.038.24.24.549.36.925.36.511 0 .947-.127 1.308-.383l1.061 3c-.361.242-.805.415-1.331.52a7.38 7.38 0 0 1-1.647.18Zm-6.746-8.776v-3.204h8.866v3.204h-8.866ZM98.892 13.678c.948 0 1.805.195 2.572.586.767.376 1.369.963 1.805 1.76.451.797.677 1.828.677 3.091v6.994h-4.287v-6.294c0-.873-.18-1.505-.541-1.896-.346-.406-.835-.609-1.467-.609-.451 0-.865.106-1.24.316-.377.196-.67.504-.88.925-.211.421-.317.97-.317 1.647v5.911h-4.286V13.881h4.083v3.474l-.79-1.015c.467-.887 1.106-1.55 1.918-1.985.813-.452 1.73-.677 2.753-.677ZM82.038 26.312c-1.339 0-2.527-.27-3.565-.812-1.038-.541-1.858-1.286-2.46-2.233-.586-.963-.88-2.061-.88-3.294 0-1.234.294-2.324.88-3.272a6.14 6.14 0 0 1 2.46-2.211c1.038-.542 2.226-.812 3.565-.812 1.338 0 2.527.27 3.565.812 1.052.526 1.872 1.263 2.459 2.211.586.948.88 2.038.88 3.271 0 1.234-.294 2.332-.88 3.295-.587.947-1.407 1.692-2.46 2.233-1.037.542-2.226.812-3.564.812Zm0-3.406c.496 0 .932-.113 1.308-.339.391-.226.7-.556.925-.993.226-.45.339-.985.339-1.602 0-.616-.113-1.135-.339-1.556a2.368 2.368 0 0 0-.925-.993c-.376-.226-.812-.338-1.308-.338a2.57 2.57 0 0 0-1.309.338c-.376.226-.684.557-.925.993-.225.42-.338.94-.338 1.556 0 .617.113 1.151.338 1.602.24.437.55.767.925.993a2.57 2.57 0 0 0 1.309.339ZM66.052 26.11V13.88h4.083v3.566l-.609-1.016c.361-.917.948-1.602 1.76-2.053.812-.466 1.798-.7 2.956-.7v3.859a3.456 3.456 0 0 0-.52-.045 4.121 4.121 0 0 0-.45-.023c-.873 0-1.58.24-2.121.722-.542.466-.813 1.233-.813 2.301v5.618h-4.286ZM56.151 17.242h7.288v3.452H56.15v-3.452Zm.316 8.867H52V10.316h12.386v3.452h-7.919v12.341Z" fill="#0E1534"/></svg>