<svg fill="none" xmlns="http://www.w3.org/2000/svg" viewBox="0 0 170 41"><path fill-rule="evenodd" clip-rule="evenodd" d="M20.684 40.138c11.045 0 20-8.954 20-20s-8.955-20-20-20c-11.046 0-20 8.954-20 20s8.954 20 20 20Zm6.239-30.683c.304-1.079-.743-1.717-1.7-1.036l-13.346 9.508c-1.037.74-.874 2.21.245 2.21h3.514v-.026h6.85l-5.581 1.969-2.46 8.741c-.304 1.079.742 1.717 1.699 1.036l13.347-9.509c1.036-.738.873-2.21-.245-2.21h-5.33l3.007-10.683Z" fill="#57F19E"/><path d="M167.719 28h-3.797V10.937h3.797V28ZM150.07 28h-4.066l6.328-17.063h2.566l-.386 3.399L150.07 28Zm3.621-13.664-.421-3.399h2.601L162.223 28h-4.067l-4.465-13.664Zm4.36 10.36h-8.989v-3.083h8.989v3.082ZM135.035 10h3.68v18h-3.305l-.375-2.86V10Zm-7.91 11.566c0-1.289.191-2.418.574-3.386.391-.977.953-1.735 1.688-2.274.742-.547 1.644-.82 2.707-.82.984 0 1.808.289 2.472.867.664.57 1.188 1.348 1.571 2.332.383.985.648 2.102.797 3.352v.21c-.149 1.172-.414 2.243-.797 3.212-.383.968-.907 1.742-1.571 2.32-.664.57-1.496.855-2.496.855-1.054 0-1.949-.277-2.683-.832-.735-.562-1.297-1.328-1.688-2.297-.383-.968-.574-2.066-.574-3.293v-.246Zm3.668.247c0 .64.066 1.222.199 1.746.141.523.371.941.692 1.253.328.305.769.457 1.324.457.539 0 .984-.124 1.336-.374.359-.25.625-.598.797-1.043.179-.454.277-.977.293-1.57v-1.079a5.343 5.343 0 0 0-.176-1.348 2.851 2.851 0 0 0-.446-.996 1.827 1.827 0 0 0-.738-.597 2.412 2.412 0 0 0-1.043-.211c-.547 0-.984.156-1.312.469-.328.304-.567.722-.715 1.253-.141.524-.211 1.122-.211 1.793v.247ZM125.016 28h-3.668V10h3.668v18ZM115.043 19.563c0-.547-.137-.981-.41-1.301-.266-.328-.695-.492-1.289-.492-.336 0-.625.054-.867.164-.235.109-.418.27-.551.48-.125.203-.188.461-.188.773h-3.656c0-.773.223-1.464.668-2.074.453-.617 1.086-1.11 1.898-1.476.821-.367 1.786-.551 2.895-.551.992 0 1.875.168 2.648.504a4.082 4.082 0 0 1 1.852 1.5c.453.664.68 1.496.68 2.496v5.262c0 .773.043 1.379.129 1.816.093.43.222.809.386 1.137V28h-3.679c-.172-.367-.301-.824-.387-1.371a11.075 11.075 0 0 1-.129-1.7v-5.366Zm.492 2.753h-1.781c-.82 0-1.41.184-1.77.551a1.834 1.834 0 0 0-.527 1.313c0 .375.133.687.398.937.274.242.633.363 1.079.363.468 0 .875-.09 1.218-.27.344-.187.606-.405.786-.655.187-.258.273-.496.257-.715l.914 1.57a5.7 5.7 0 0 1-.504.961c-.203.328-.46.633-.773.914a3.8 3.8 0 0 1-1.137.692c-.445.171-.972.257-1.582.257-.797 0-1.523-.16-2.179-.48a4.065 4.065 0 0 1-1.571-1.348c-.383-.578-.574-1.242-.574-1.992 0-1.32.488-2.348 1.465-3.082.984-.734 2.461-1.102 4.43-1.102h1.828l.023 2.086ZM103.125 28h-3.668V15.32h3.445l.223 3V28Zm3.68-9.223a8.99 8.99 0 0 0-.621-.058 6.77 6.77 0 0 0-.645-.035c-.609 0-1.113.093-1.512.28-.39.18-.679.454-.867.821-.187.36-.289.817-.305 1.371l-.703-.363c0-1.117.141-2.105.422-2.965.289-.86.703-1.531 1.242-2.015.547-.485 1.204-.727 1.969-.727.18 0 .371.012.574.035.203.024.368.063.493.117l-.047 3.54ZM92.402 28.234c-1.343 0-2.496-.277-3.457-.832-.953-.562-1.683-1.308-2.191-2.238-.508-.93-.762-1.953-.762-3.07v-.446c0-1.257.239-2.382.715-3.375.477-.992 1.16-1.77 2.05-2.332.9-.57 1.977-.855 3.235-.855 1.227 0 2.258.258 3.094.773.844.516 1.484 1.243 1.922 2.18.437.93.656 2.027.656 3.293v1.547h-10.16v-2.45h6.574v-.292a2.66 2.66 0 0 0-.234-1.102 1.583 1.583 0 0 0-.692-.738c-.304-.18-.699-.27-1.183-.27-.578 0-1.035.164-1.371.492-.336.32-.579.754-.727 1.301-.14.54-.21 1.149-.21 1.828v.446c0 .633.116 1.187.35 1.664a2.68 2.68 0 0 0 1.02 1.125c.446.265.98.398 1.606.398a4.32 4.32 0 0 0 1.652-.316 3.339 3.339 0 0 0 1.348-1.043l1.734 2.039c-.39.57-1.008 1.094-1.852 1.57-.843.469-1.882.703-3.117.703ZM69.375 28h-3.668V15.32h3.445l.223 2.66V28Zm-1.465-6.703c0-1.203.184-2.27.55-3.2.376-.937.93-1.671 1.665-2.203.742-.539 1.656-.808 2.742-.808 1.125 0 2.04.348 2.742 1.043.704.687 1.055 1.824 1.055 3.41V28h-3.668v-7.992c0-.54-.07-.95-.21-1.23-.134-.282-.329-.473-.587-.575-.258-.101-.57-.152-.937-.152-.406 0-.758.078-1.055.234a2.113 2.113 0 0 0-.75.668c-.195.281-.34.617-.434 1.008-.093.39-.14.82-.14 1.289l-.973.047Zm7.16-.094c-.007-1.164.168-2.207.528-3.129.367-.922.91-1.648 1.629-2.18.726-.539 1.629-.808 2.707-.808.804 0 1.507.156 2.109.469.61.312 1.082.828 1.418 1.547.336.71.504 1.668.504 2.87V28h-3.68v-8.027c0-.532-.07-.934-.21-1.207a1.083 1.083 0 0 0-.587-.563 2.526 2.526 0 0 0-.925-.152c-.383 0-.715.074-.997.222-.28.149-.515.36-.703.633a3.36 3.36 0 0 0-.422.973 5.02 5.02 0 0 0-.14 1.219l-1.23.105ZM63.996 28h-9.012v-3.07h9.012V28Zm-7.758 0h-3.82V10.937h3.82V28Zm6.586-7.277h-7.84v-2.977h7.84v2.977Zm1.172-6.703h-9.012v-3.082h9.012v3.082Z" fill="#F8F8F8"/></svg>