<svg fill="none" xmlns="http://www.w3.org/2000/svg" viewBox="0 0 167 41"><g clip-path="url(#a)"><path fill-rule="evenodd" clip-rule="evenodd" d="M8.654 3.892c-1.43 1-2.724 2.183-3.847 3.514 4.59-.426 10.42.27 17.189 3.654 7.229 3.615 13.05 3.737 17.1 2.955a19.888 19.888 0 0 0-1.378-3.199c-4.638.49-10.583-.158-17.51-3.622-4.4-2.2-8.279-3.106-11.554-3.302ZM35.01 6.96A19.95 19.95 0 0 0 20.102.294c-1.74 0-3.428.222-5.037.64 2.18.594 4.494 1.464 6.93 2.682 5.073 2.536 9.453 3.353 13.014 3.344Zm4.953 10.962c-4.894.966-11.652.768-19.755-3.284-7.575-3.788-13.605-3.74-17.672-2.836-.21.046-.414.095-.614.146a19.85 19.85 0 0 0-1.263 3.64c.326-.087.662-.17 1.01-.247 4.933-1.096 11.904-1.048 20.328 3.164 7.576 3.788 13.605 3.74 17.672 2.836.139-.03.276-.063.411-.096a20.296 20.296 0 0 0-.117-3.323Zm-.536 7.544c-4.846.847-11.408.522-19.219-3.384-7.575-3.787-13.605-3.74-17.672-2.836-.902.2-1.714.445-2.43.703-.002.114-.003.23-.003.345 0 11.045 8.954 20 20 20 9.257 0 17.045-6.29 19.324-14.828Z" fill="#E0BE0E"/><path d="M164.496 16.472h2.794L162.472 28h-2.464l-1.936-4.95L156.18 28h-2.486l-4.796-11.528h2.772l3.432 8.712 1.342-3.762-2.002-4.928h2.442l1.188 3.52 1.21-3.52h2.442l-2.002 4.928 1.364 3.762 3.41-8.712ZM142.474 28.22c-.924 0-1.76-.154-2.508-.462a5.888 5.888 0 0 1-1.914-1.298 6.205 6.205 0 0 1-1.232-1.892 6.226 6.226 0 0 1-.418-2.266c0-1.1.242-2.105.726-3.014a5.686 5.686 0 0 1 2.112-2.178c.924-.557 2.01-.836 3.256-.836 1.262 0 2.34.279 3.234.836a5.406 5.406 0 0 1 2.046 2.178c.484.895.726 1.863.726 2.904 0 .176-.007.36-.022.55a9.443 9.443 0 0 1-.044.44h-8.91c.059.587.228 1.1.506 1.54.294.44.66.777 1.1 1.012.455.22.939.33 1.452.33.587 0 1.137-.14 1.65-.418.528-.293.888-.675 1.078-1.144l2.53.704a4.723 4.723 0 0 1-1.21 1.562 5.781 5.781 0 0 1-1.826 1.078c-.704.25-1.481.374-2.332.374Zm-3.014-6.908h6.028c-.058-.587-.227-1.093-.506-1.518a2.692 2.692 0 0 0-1.056-1.012 2.936 2.936 0 0 0-1.474-.374c-.528 0-1.012.125-1.452.374a2.907 2.907 0 0 0-1.056 1.012c-.264.425-.425.931-.484 1.518ZM121.446 28V12.38h5.676c1.702 0 3.124.352 4.268 1.056a6.537 6.537 0 0 1 2.574 2.816c.572 1.173.858 2.479.858 3.916 0 1.584-.315 2.963-.946 4.136a6.673 6.673 0 0 1-2.684 2.728c-1.144.645-2.5.968-4.07.968h-5.676Zm10.318-7.832c0-1.012-.183-1.9-.55-2.662-.366-.777-.894-1.379-1.584-1.804-.689-.44-1.525-.66-2.508-.66h-2.64v10.296h2.64c.998 0 1.841-.22 2.53-.66a4.272 4.272 0 0 0 1.562-1.848c.367-.792.55-1.68.55-2.662ZM109.087 30.244c.264.059.506.11.726.154.234.044.432.066.594.066.278 0 .506-.073.682-.22.19-.132.374-.381.55-.748.176-.352.359-.85.55-1.496l-4.554-11.528h3.058l3.102 8.514 2.728-8.514h2.816l-4.84 13.816a4.03 4.03 0 0 1-.814 1.386 3.53 3.53 0 0 1-1.342.99c-.528.25-1.122.374-1.782.374-.235 0-.47-.022-.704-.066a4.362 4.362 0 0 1-.77-.176v-2.552ZM101.167 28.22c-.924 0-1.76-.154-2.508-.462a5.888 5.888 0 0 1-1.914-1.298 6.194 6.194 0 0 1-1.232-1.892 6.214 6.214 0 0 1-.418-2.266c0-1.1.242-2.105.726-3.014a5.682 5.682 0 0 1 2.112-2.178c.924-.557 2.01-.836 3.256-.836 1.261 0 2.339.279 3.234.836a5.42 5.42 0 0 1 2.046 2.178c.484.895.726 1.863.726 2.904 0 .176-.008.36-.022.55-.015.176-.03.323-.044.44h-8.91c.058.587.227 1.1.506 1.54.293.44.66.777 1.1 1.012.454.22.938.33 1.452.33.586 0 1.136-.14 1.65-.418.528-.293.887-.675 1.078-1.144l2.53.704a4.736 4.736 0 0 1-1.21 1.562 5.792 5.792 0 0 1-1.826 1.078c-.704.25-1.482.374-2.332.374Zm-3.014-6.908h6.028c-.059-.587-.228-1.093-.506-1.518a2.692 2.692 0 0 0-1.056-1.012 2.94 2.94 0 0 0-1.474-.374c-.528 0-1.012.125-1.452.374a2.902 2.902 0 0 0-1.056 1.012c-.264.425-.426.931-.484 1.518ZM93.037 28H90.09v-6.468c0-.924-.161-1.599-.484-2.024-.322-.425-.77-.638-1.342-.638-.396 0-.8.103-1.21.308a3.714 3.714 0 0 0-1.078.858 3.221 3.221 0 0 0-.704 1.232V28h-2.948V16.472h2.662v2.134a4.189 4.189 0 0 1 1.122-1.254 4.759 4.759 0 0 1 1.562-.792 6.225 6.225 0 0 1 1.892-.286c.719 0 1.306.132 1.76.396.47.25.822.594 1.056 1.034.25.425.418.91.506 1.452.103.543.154 1.093.154 1.65V28ZM74.085 28.22c-.938 0-1.782-.154-2.53-.462a5.721 5.721 0 0 1-1.914-1.32 5.997 5.997 0 0 1-1.188-1.914 6.212 6.212 0 0 1-.418-2.266c0-.807.14-1.57.418-2.288a5.999 5.999 0 0 1 1.188-1.914 5.466 5.466 0 0 1 1.914-1.298c.748-.323 1.591-.484 2.53-.484.939 0 1.775.161 2.508.484.748.308 1.386.74 1.914 1.298a5.527 5.527 0 0 1 1.188 1.914c.279.719.418 1.481.418 2.288 0 .792-.14 1.547-.418 2.266a5.525 5.525 0 0 1-1.188 1.914 5.488 5.488 0 0 1-1.892 1.32c-.748.308-1.591.462-2.53.462Zm-3.014-5.962c0 .675.132 1.276.396 1.804.264.513.624.917 1.078 1.21.455.293.968.44 1.54.44a2.74 2.74 0 0 0 1.518-.44 3.257 3.257 0 0 0 1.078-1.232c.279-.528.418-1.13.418-1.804 0-.66-.14-1.254-.418-1.782a3.053 3.053 0 0 0-1.078-1.232 2.742 2.742 0 0 0-1.518-.44c-.572 0-1.085.154-1.54.462a3.052 3.052 0 0 0-1.078 1.232c-.264.513-.396 1.107-.396 1.782ZM65.762 12.38V28h-3.014v-6.666h-7.084V28h-3.036V12.38h3.036v6.314h7.084V12.38h3.014Z" fill="#F1EDFB"/></g><defs><clipPath id="a"><path fill="#fff" d="M0 0h167v41H0z"/></clipPath></defs></svg>