<svg fill="none" xmlns="http://www.w3.org/2000/svg" viewBox="0 0 112 30"><path d="M20.99 23.759 3.05 11.384c-1.818-1.254-1.2-3.865 1.067-4.48L23.184 1.73A2.7 2.7 0 0 1 26.8 4.222L25.67 21.77c-.134 2.083-2.862 3.242-4.68 1.988Z" fill="#E9327C"/><path d="M15.3 26.814 4.73 6.145a2.883 2.883 0 0 1 3.008-4.16l19.587 3.022a2.884 2.884 0 0 1 2.127 4.162l-9.023 17.646a2.883 2.883 0 0 1-5.13 0Z" fill="#1DACE3"/><path d="M26.752 4.918 16.988 3.41 5 6.666l4.785 9.36L20.99 23.76c.247.169.52.298.806.383l4.256-8.323.7-10.901ZM109.27 9.54a2.27 2.27 0 1 0 0-4.54 2.27 2.27 0 0 0 0 4.54ZM98.911 19.192c-.928 0-1.738-.219-2.432-.656a3.422 3.422 0 0 1-1.408-1.808l1.568-.752c.224.49.534.875.928 1.152.406.277.854.416 1.344.416.384 0 .688-.085.912-.256a.806.806 0 0 0 .336-.672c0-.17-.048-.31-.144-.416a.924.924 0 0 0-.368-.288 2.309 2.309 0 0 0-.496-.208l-1.424-.4c-.736-.213-1.296-.539-1.68-.976a2.314 2.314 0 0 1-.56-1.552c0-.533.134-.997.4-1.392.278-.405.656-.72 1.136-.944.491-.224 1.051-.336 1.68-.336.822 0 1.547.197 2.176.592a3.24 3.24 0 0 1 1.344 1.664l-1.6.752c-.149-.395-.4-.71-.752-.944a2.087 2.087 0 0 0-1.184-.352c-.352 0-.629.08-.832.24a.758.758 0 0 0-.304.624c0 .16.043.299.128.416a.95.95 0 0 0 .352.288c.16.075.342.144.544.208l1.392.416c.715.213 1.264.533 1.648.96.395.427.592.95.592 1.568 0 .523-.138.987-.416 1.392-.277.395-.661.704-1.152.928-.49.224-1.066.336-1.728.336ZM91.408 19V6.888h2.096V19h-2.096ZM87.217 19v-8.704h2.096V19h-2.096Zm0-9.68V7.08h2.096v2.24h-2.096ZM80.416 19.192c-.608 0-1.136-.101-1.584-.304a2.385 2.385 0 0 1-1.04-.864 2.413 2.413 0 0 1-.368-1.328c0-.48.106-.907.32-1.28.213-.384.544-.704.992-.96.448-.256 1.013-.437 1.696-.544l2.848-.464v1.6l-2.448.416c-.416.075-.725.208-.928.4-.203.192-.304.443-.304.752a.88.88 0 0 0 .336.72c.234.17.522.256.864.256.437 0 .821-.09 1.152-.272.341-.192.603-.453.784-.784.192-.33.288-.693.288-1.088v-2.24c0-.373-.15-.683-.448-.928-.288-.256-.672-.384-1.152-.384-.448 0-.848.123-1.2.368-.342.235-.592.55-.752.944l-1.712-.832c.17-.459.437-.853.8-1.184.373-.341.81-.608 1.312-.8a4.526 4.526 0 0 1 1.632-.288c.715 0 1.344.133 1.888.4a2.94 2.94 0 0 1 1.264 1.088c.31.459.464.997.464 1.616V19h-1.984v-1.488l.448-.032c-.224.373-.49.688-.8.944a3.61 3.61 0 0 1-1.056.576 4.236 4.236 0 0 1-1.312.192ZM71.63 19v-8.704H73.6v1.936l-.16-.288c.203-.65.517-1.104.944-1.36.437-.256.96-.384 1.568-.384h.512v1.856h-.752c-.597 0-1.078.187-1.44.56-.363.363-.544.875-.544 1.536V19H71.63ZM68.83 19.096c-.981 0-1.744-.267-2.288-.8-.533-.544-.8-1.307-.8-2.288v-3.84h-1.504v-1.872h.16c.427 0 .758-.112.992-.336.235-.224.352-.55.352-.976v-.672h2.096v1.984h2v1.872h-2v3.728c0 .288.048.533.144.736.107.203.267.357.48.464.224.107.507.16.848.16.075 0 .16-.005.256-.016.107-.01.208-.021.304-.032V19c-.15.021-.32.043-.512.064a4.82 4.82 0 0 1-.528.032ZM58.483 19v-8.704h1.968v1.936l-.16-.288c.203-.65.518-1.104.944-1.36.438-.256.96-.384 1.568-.384h.512v1.856h-.752c-.597 0-1.077.187-1.44.56-.362.363-.544.875-.544 1.536V19h-2.096ZM52.141 19.192a4.695 4.695 0 0 1-2.336-.592 4.56 4.56 0 0 1-1.664-1.616c-.405-.683-.608-1.461-.608-2.336 0-.875.203-1.653.608-2.336a4.56 4.56 0 0 1 1.664-1.616c.694-.395 1.472-.592 2.336-.592.854 0 1.627.197 2.32.592a4.437 4.437 0 0 1 1.648 1.616c.416.672.624 1.45.624 2.336 0 .875-.208 1.653-.624 2.336a4.575 4.575 0 0 1-3.968 2.208Zm0-1.92c.47 0 .88-.112 1.232-.336.363-.224.646-.533.848-.928.214-.405.32-.859.32-1.36 0-.512-.106-.96-.32-1.344a2.302 2.302 0 0 0-.848-.928 2.169 2.169 0 0 0-1.232-.352c-.48 0-.901.117-1.264.352-.363.224-.65.533-.864.928-.203.384-.304.832-.304 1.344 0 .501.101.955.304 1.36.214.395.502.704.864.928.363.224.784.336 1.264.336ZM36.976 22.2V10.296h1.968v1.728l-.192-.432c.298-.47.704-.832 1.216-1.088.512-.267 1.104-.4 1.776-.4.82 0 1.562.203 2.224.608.66.405 1.184.95 1.568 1.632.394.683.592 1.45.592 2.304 0 .843-.192 1.61-.576 2.304a4.393 4.393 0 0 1-1.568 1.648c-.662.395-1.414.592-2.256.592-.63 0-1.211-.123-1.744-.368a3.092 3.092 0 0 1-1.248-1.088l.336-.416v4.88h-2.096Zm4.512-4.928c.48 0 .906-.112 1.28-.336.373-.224.66-.533.864-.928.213-.395.32-.848.32-1.36 0-.512-.107-.96-.32-1.344a2.267 2.267 0 0 0-.864-.928 2.354 2.354 0 0 0-1.28-.352c-.46 0-.875.112-1.248.336a2.39 2.39 0 0 0-.864.944 2.9 2.9 0 0 0-.304 1.344c0 .512.1.965.304 1.36.213.395.5.704.864.928.373.224.789.336 1.248.336Z" fill="#E9EDF5"/></svg>