<svg fill="none" xmlns="http://www.w3.org/2000/svg" viewBox="0 0 134 34"><path d="M15.45 6.65V2.4H2.05v29.2h13.4v-4.25a10.35 10.35 0 0 1 0-20.7ZM15.45 6.65v20.7a10.35 10.35 0 0 0 0-20.7ZM125.42 19.594c0-.917.351-1.602 1.055-2.055.703-.458 1.591-.69 2.664-.695h1.601v-.461c0-.37-.094-.667-.281-.89-.188-.23-.518-.345-.992-.345-.479 0-.818.094-1.016.282a.92.92 0 0 0-.297.695v.117h-2.297v-.117c0-.74.344-1.349 1.032-1.828.687-.48 1.578-.719 2.672-.719 1.104 0 1.966.23 2.585.688.62.458.93 1.169.93 2.132v3.766c0 .328.031.643.094.945.062.302.143.558.242.766V22h-2.297a2.136 2.136 0 0 1-.164-.469 4.686 4.686 0 0 1-.101-.57c-.157.307-.461.583-.914.828-.448.24-1.008.36-1.68.36-.807 0-1.482-.212-2.024-.633-.541-.427-.812-1.068-.812-1.922Zm2.344-.211c0 .36.104.648.312.867.209.219.537.328.985.328.484 0 .885-.154 1.203-.46.317-.308.476-.673.476-1.095v-.78h-1.258c-.583 0-1.015.098-1.296.296-.282.198-.422.48-.422.844ZM121.308 22v-8.195h2.351V22h-2.351Zm-.196-10.492c0-.35.117-.643.352-.883.239-.245.581-.367 1.023-.367.438 0 .774.12 1.008.36.24.239.359.536.359.89 0 .36-.119.661-.359.906-.234.24-.573.36-1.016.36-.437 0-.776-.12-1.015-.36a1.258 1.258 0 0 1-.352-.906ZM111.897 13.805h2.368l1.672 4.797c.067.192.117.37.148.53.036.162.065.316.086.462h.055c.02-.146.049-.297.086-.453.036-.162.083-.341.14-.54l1.68-4.796h2.101L117.132 22h-2.117l-3.118-8.195ZM94.397 22v-8.195h2.22l.046.945h.047c.24-.354.565-.625.977-.813.411-.192.849-.289 1.312-.289.573 0 1.07.12 1.492.36.422.24.729.591.922 1.055h.031a2.755 2.755 0 0 1 1.141-1.055c.484-.24.995-.36 1.531-.36.823 0 1.485.258 1.985.774.505.51.757 1.364.757 2.562V22h-2.336v-5.125c0-.49-.101-.852-.304-1.086-.203-.234-.503-.351-.899-.351a1.457 1.457 0 0 0-.914.28 1.98 1.98 0 0 0-.609.805V22h-2.344v-5.11c0-.5-.101-.867-.305-1.1-.203-.235-.507-.352-.914-.352-.349 0-.65.093-.906.28-.25.183-.448.451-.594.805V22h-2.336ZM84.722 18.828v-5.023h2.343v5.078c0 .562.112.953.336 1.172.23.213.54.32.93.32.349 0 .662-.102.938-.305a1.91 1.91 0 0 0 .625-.773v-5.492h2.335V22h-2.218l-.055-.93h-.039c-.24.339-.57.607-.992.805-.417.193-.886.29-1.406.29-.818 0-1.49-.256-2.016-.767-.52-.515-.781-1.372-.781-2.57ZM70.249 22v-8.195h2.219l.047.945h.046c.24-.354.566-.625.977-.813.412-.192.849-.289 1.313-.289.573 0 1.07.12 1.492.36.422.24.729.591.922 1.055h.03a2.749 2.749 0 0 1 1.141-1.055 3.41 3.41 0 0 1 1.532-.36c.823 0 1.484.258 1.984.774.505.51.758 1.364.758 2.562V22h-2.336v-5.125c0-.49-.102-.852-.305-1.086-.203-.234-.502-.351-.898-.351a1.456 1.456 0 0 0-.914.28c-.255.194-.459.462-.61.805V22h-2.343v-5.11c0-.5-.102-.867-.305-1.1-.203-.235-.508-.352-.914-.352-.349 0-.651.093-.906.28-.25.183-.448.451-.594.805V22h-2.336ZM65.723 22v-8.195h2.351V22h-2.351Zm-.196-10.492c0-.35.117-.643.352-.883.24-.245.58-.367 1.023-.367.438 0 .774.12 1.008.36.24.239.36.536.36.89 0 .36-.12.661-.36.906-.234.24-.573.36-1.016.36-.437 0-.776-.12-1.015-.36a1.26 1.26 0 0 1-.352-.906ZM56.102 22v-8.195h2.218l.055.93h.04c.207-.318.52-.579.937-.782a3.115 3.115 0 0 1 1.398-.312c.844 0 1.531.24 2.063.718.53.474.796 1.308.796 2.5V22h-2.336v-5.188c0-.505-.109-.859-.328-1.062-.218-.208-.53-.313-.937-.313-.328 0-.636.094-.922.282a1.732 1.732 0 0 0-.648.797V22h-2.336ZM51.574 22v-8.195h2.352V22h-2.352Zm-.195-10.492c0-.35.117-.643.352-.883.24-.245.58-.367 1.023-.367.437 0 .773.12 1.008.36.24.239.36.536.36.89 0 .36-.12.661-.36.906-.235.24-.573.36-1.016.36-.437 0-.776-.12-1.016-.36a1.26 1.26 0 0 1-.351-.906ZM37 22v-8.195h2.219l.047.945h.047c.24-.354.565-.625.976-.813.411-.192.849-.289 1.313-.289.573 0 1.07.12 1.492.36.422.24.729.591.922 1.055h.03a2.748 2.748 0 0 1 1.142-1.055 3.41 3.41 0 0 1 1.53-.36c.824 0 1.485.258 1.985.774.505.51.758 1.364.758 2.562V22h-2.336v-5.125c0-.49-.102-.852-.305-1.086-.203-.234-.502-.351-.898-.351a1.456 1.456 0 0 0-.914.28 1.98 1.98 0 0 0-.61.805V22h-2.343v-5.11c0-.5-.102-.867-.305-1.1-.203-.235-.508-.352-.914-.352-.349 0-.651.093-.906.28-.25.183-.448.451-.594.805V22H37Z" fill="#394149"/></svg>